
<svg width="37px" height="26px" viewBox="0 0 37 26" version="1.1" xmlns="http://www.w3.org/2000/svg" xmlns:xlink="http://www.w3.org/1999/xlink">
    <g id="Propuesta_NuevosAjustes" stroke="none" stroke-width="1" fill="none" fill-rule="evenodd">
        <g id="760_01" transform="translate(-712.000000, -20.000000)" fill="#269FDD" fill-rule="nonzero">
            <g id="Group" transform="translate(712.000000, 20.000000)">
                <path d="M1.5,2 C0.94771525,2 0.5,1.55228475 0.5,1 C0.5,0.44771525 0.94771525,0 1.5,0 L35.3644467,0 C35.9167315,0 36.3644467,0.44771525 36.3644467,1 C36.3644467,1.55228475 35.9167315,2 35.3644467,2 L1.5,2 Z M1.5,14 C0.94771525,14 0.5,13.5522847 0.5,13 C0.5,12.4477153 0.94771525,12 1.5,12 L35.3644467,12 C35.9167315,12 36.3644467,12.4477153 36.3644467,13 C36.3644467,13.5522847 35.9167315,14 35.3644467,14 L1.5,14 Z M1.5,26 C0.94771525,26 0.5,25.5522847 0.5,25 C0.5,24.4477153 0.94771525,24 1.5,24 L35.3644467,24 C35.9167315,24 36.3644467,24.4477153 36.3644467,25 C36.3644467,25.5522847 35.9167315,26 35.3644467,26 L1.5,26 Z" id="Combined-Shape"></path>
            </g>
        </g>
    </g>
</svg>