<?xml version="1.0" encoding="UTF-8"?>
<svg width="24px" height="24px" viewBox="0 0 24 24" version="1.1" xmlns="http://www.w3.org/2000/svg" xmlns:xlink="http://www.w3.org/1999/xlink">
    <!-- Generator: Sketch 61.1 (89650) - https://sketch.com -->
    <title>Icons/24px/barcode Copy</title>
    <desc>Created with Sketch.</desc>
    <g id="Documentacion" stroke="none" stroke-width="1" fill="none" fill-rule="evenodd">
        <g id="Tipografia-Copy" transform="translate(-649.000000, -2113.000000)">
            <g id="Group-12" transform="translate(629.000000, 2053.000000)">
                <g id="Icons/24px/barcode" transform="translate(20.000000, 60.000000)">
                    <path d="M2,4 L2,20 L0,20 L0,4 L2,4 Z M5,4 L5,20 L3,20 L3,4 L5,4 Z M13,4 L13,20 L11,20 L11,4 L13,4 Z M8,4 L8,20 L6,20 L6,4 L8,4 Z M16,4 L16,20 L14,20 L14,4 L16,4 Z M21,4 L21,20 L19,20 L19,4 L21,4 Z M24,4 L24,20 L22,20 L22,4 L24,4 Z" id="Combined-Shape" fill="#525A65" fill-rule="evenodd"></path>
                    <path d="M0.00499895812,0.005 L0,23.995 L23.995,24 L24,0.005 L0.00499895812,0.005 Z" id="Path" stroke-opacity="0.01" stroke="#000000" stroke-width="0.01"></path>
                </g>
            </g>
        </g>
    </g>
</svg>