<?xml version="1.0" encoding="UTF-8"?>
<svg width="24px" height="24px" viewBox="0 0 24 24" version="1.1" xmlns="http://www.w3.org/2000/svg" xmlns:xlink="http://www.w3.org/1999/xlink">
    <!-- Generator: Sketch 61.1 (89650) - https://sketch.com -->
    <title>Icons/24px/kiosk Copy</title>
    <desc>Created with Sketch.</desc>
    <g id="Pantallas" stroke="none" stroke-width="1" fill="none" fill-rule="evenodd">
        <g id="Desktop_02" transform="translate(-29.000000, -263.000000)">
            <g id="Group-4" transform="translate(29.000000, 263.000000)">
                <g id="Icons/24px/kiosk-Copy">
                    <rect id="Rectangle" fill-opacity="0" fill="#FF0000" x="0" y="0" width="24" height="24"></rect>
                    <path d="M12.9761869,15 L15.9668179,15 C16.5242769,15 16.9761868,15.4438648 16.9761868,15.9999999 C16.9761868,16.5522846 16.5345835,16.9999998 15.9691812,16.9999998 L12,17 C10.8341177,15.9828156 8,13.5 8,13.5 C8,13.5 7.5,13 6.97723055,13 C6.4544611,13 5.65572855,13.5518355 5.51840391,14.1697964 L3.99999994,21 L2,21 L3.56602979,13.7359355 C3.9065958,12.2033885 5,11 6.9772305,11 C8,11 8.81967381,11.4161197 8.99457894,11.5686599 C9.98689012,12.4340851 12.9761869,15 12.9761869,15 Z M21,11 L18,21.0000002 L20,21.0000002 L23,11 L21,11 Z M7.97618706,8 C9.08075656,8 9.97618706,7.1045695 9.97618706,6 C9.97618706,4.8954305 9.08075656,4 7.97618706,4 C6.87161756,4 5.97618706,4.8954305 5.97618706,6 C5.97618706,7.1045695 6.87161756,8 7.97618706,8 L7.97618706,8 Z M7.97618706,10 L7.97618706,10 C5.76704806,10 3.97618706,8.209139 3.97618706,6 C3.97618706,3.790861 5.76704806,2 7.97618706,2 C10.1853261,2 11.9761871,3.790861 11.9761871,6 C11.9761871,8.209139 10.1853261,10 7.97618706,10 L7.97618706,10 Z" id="Combined-Shape" fill="#B5C5D5"></path>
                    <path d="M0.00499895812,0.005 L0,23.995 L23.995,24 L24,0.005 L0.00499895812,0.005 Z" id="Path" stroke-opacity="0.01" stroke="#000000" stroke-width="0.01"></path>
                </g>
            </g>
        </g>
    </g>
</svg>