<?xml version="1.0" encoding="UTF-8"?>
<svg width="24px" height="24px" viewBox="0 0 24 24" version="1.1" xmlns="http://www.w3.org/2000/svg" xmlns:xlink="http://www.w3.org/1999/xlink">
    <!-- Generator: Sketch 61.1 (89650) - https://sketch.com -->
    <title>Group 12</title>
    <desc>Created with Sketch.</desc>
    <g id="Pantallas" stroke="none" stroke-width="1" fill="none" fill-rule="evenodd">
        <g id="Desktop_08" transform="translate(-1130.000000, -279.000000)">
            <g id="Group-17" transform="translate(370.000000, 258.000000)">
                <g id="Group-25" transform="translate(740.000000, 0.000000)">
                    <g id="Group-24">
                        <g id="Group-12" transform="translate(20.000000, 21.000000)">
                            <g id="Icons/24px/table-Copy">
                                <rect id="Rectangle" fill-opacity="0" fill="#FF0000" x="0" y="0" width="24" height="24"></rect>
                                <path d="M0.00499895812,0.005 L0,23.995 L23.995,24 L24,0.005 L0.00499895812,0.005 Z" id="Path" stroke-opacity="0.01" stroke="#000000" stroke-width="0.01"></path>
                                <path d="M1.99828252,2 L1.99828252,22 L21.9982825,22 L21.9982825,8 L16,8 C16,9.33333333 16,10 16,10 C16,10 20,10 20,9.95155617 C20,7.25259362 20,14 20,14 C20,14 18.6660942,14 15.9982825,14 L16,8 L9.99828252,8 L9.99828252,2 L1.99828252,2 Z M8,20 L4,20 L4,16 L8,16 L8,20 Z M8,14 L4,14 L4,10 L8,10 L8,14 Z M16,20 L8,20 L8,16 L16,16 L16,20 Z M14,14 L10,14 L10,10 L14,10 L14,14 Z M20,20 L16,20 L16,16 L20,16 L20,20 Z M8,8 L4,8 L4,4 L8,4 L8,8 Z" id="Shape" fill="#525A65"></path>
                            </g>
                            <rect id="Rectangle" stroke="#525A65" stroke-width="2" x="9" y="3" width="6" height="6"></rect>
                            <rect id="Rectangle-Copy" stroke="#525A65" stroke-width="2" x="15" y="3" width="6" height="6"></rect>
                        </g>
                    </g>
                </g>
            </g>
        </g>
    </g>
</svg>