<?xml version="1.0" encoding="UTF-8"?>
<svg width="24px" height="24px" viewBox="0 0 24 24" version="1.1" xmlns="http://www.w3.org/2000/svg" xmlns:xlink="http://www.w3.org/1999/xlink">
    <!-- Generator: Sketch 61.1 (89650) - https://sketch.com -->
    <title>Icons/24px/maintenance Copy</title>
    <desc>Created with Sketch.</desc>
    <g id="Pantallas" stroke="none" stroke-width="1" fill="none" fill-rule="evenodd">
        <g id="Desktop_02" transform="translate(-29.000000, -552.000000)">
            <g id="Icons/24px/maintenance-Copy" transform="translate(29.000000, 552.000000)">
                <rect id="Rectangle" fill-opacity="0" fill="#FF0000" x="0" y="0" width="24" height="24"></rect>
                <path d="M15.7928932,2.79289322 L17.2071068,4.20710678 L15.1206021,6.29361143 C14.7303549,6.68385863 14.7291014,7.32069344 15.1153669,7.7091553 L16.2915272,8.89200358 C16.6793478,9.28202941 17.3019996,9.28382115 17.6895343,8.8962864 L19.7929104,6.79291037 L21.2071239,8.20712393 L19.1037479,10.3105 C17.9727404,11.4415075 16.1692342,11.475127 14.9956159,10.4185976 L4.70710678,20.7071068 L3.29289322,19.2928932 L13.5852226,9.00056385 C12.5347959,7.82364808 12.5757814,6.01000503 13.7063886,4.87939786 L15.7928932,2.79289322 Z M14.2071068,13.7928932 L19.7071068,19.2928932 L18.2928932,20.7071068 L12.7928932,15.2071068 L14.2071068,13.7928932 Z M4.35355339,4.6464466 L9.85355339,10.1464466 L9.1464466,10.8535534 L3.6464466,5.35355339 L4.35355339,4.6464466 Z" id="Combined-Shape" fill="#B8C5D3"></path>
                <path d="M0.00499895812,0.005 L0,23.995 L23.995,24 L24,0.005 L0.00499895812,0.005 Z" id="Path" stroke-opacity="0.01" stroke="#000000" stroke-width="0.01"></path>
            </g>
        </g>
    </g>
</svg>