<?xml version="1.0" encoding="UTF-8"?>
<svg width="24px" height="24px" viewBox="0 0 24 24" version="1.1" xmlns="http://www.w3.org/2000/svg" xmlns:xlink="http://www.w3.org/1999/xlink">
    <!-- Generator: Sketch 61.1 (89650) - https://sketch.com -->
    <title>Group</title>
    <desc>Created with Sketch.</desc>
    <g id="Pantallas" stroke="none" stroke-width="1" fill="none" fill-rule="evenodd">
        <g id="Desktop_02" transform="translate(-29.000000, -333.000000)">
            <g id="Group" transform="translate(29.000000, 333.000000)">
                <g id="Icons/24px/maintenance-Copy-2">
                    <rect id="Rectangle" fill-opacity="0" fill="#FF0000" x="0" y="0" width="24" height="24"></rect>
                    <path d="M13.7063886,4.87939786 L15.7928932,2.79289322 L17.2071068,4.20710678 L15.1206021,6.29361143 C14.7303549,6.68385863 14.7291014,7.32069344 15.1153669,7.7091553 L16.2915272,8.89200358 C16.6793478,9.28202941 17.3019996,9.28382115 17.6895343,8.8962864 L19.7929104,6.79291037 L21.2071239,8.20712393 L19.1037479,10.3105 C17.9727404,11.4415075 16.1692342,11.475127 14.9956159,10.4185976 L10.4142136,14.4142136 L9,13 L13.5852226,9.00056385 C12.5347959,7.82364808 12.5757814,6.01000503 13.7063886,4.87939786 Z" id="Combined-Shape" fill="#B8C5D3"></path>
                    <path d="M0.00499895812,0.005 L0,23.995 L23.995,24 L24,0.005 L0.00499895812,0.005 Z" id="Path" stroke-opacity="0.01" stroke="#000000" stroke-width="0.01"></path>
                </g>
                <path d="M1,13 L4.8302557,13 L4.8302557,23 L1,23 L1,21.1818182 L2.91512785,21.1818182 L2.91512785,14.8181818 L1,14.8181818 L1,13 Z M5.78781962,14.8181818 L5.78781962,13 C5.97319854,13 8.01198808,13 11.9041882,13 L16.0848722,13 C17.1425681,13 18,13.8140277 18,14.8181818 C18,14.9508406 17.9847074,15.083101 17.9543952,15.2126008 L16.7981131,20.1524744 C16.4086718,21.8162473 14.8543028,23 13.0590671,23 L5.78781962,23 L5.78781962,21.1818182 L13.0590671,21.1818182 C13.9566849,21.1818182 14.7338695,20.5899418 14.9285901,19.7580554 L16.0848722,14.8181818 L9.24709026,14.8181818 C7.55317483,14.8181818 6.40008461,14.8181818 5.78781962,14.8181818 Z" id="Shape" fill="#B8C5D3"></path>
            </g>
        </g>
    </g>
</svg>