<?xml version="1.0" encoding="UTF-8"?>
<svg width="24px" height="24px" viewBox="0 0 24 24" version="1.1" xmlns="http://www.w3.org/2000/svg" xmlns:xlink="http://www.w3.org/1999/xlink">
    <!-- Generator: Sketch 61.1 (89650) - https://sketch.com -->
    <title>Group 2</title>
    <desc>Created with Sketch.</desc>
    <g id="Pantallas" stroke="none" stroke-width="1" fill="none" fill-rule="evenodd">
        <g id="Desktop_02" transform="translate(-29.000000, -625.000000)">
            <g id="Group-2" transform="translate(29.000000, 625.000000)">
                <g id="Icons/24px/dublicate-Copy">
                    <rect id="Rectangle" fill-opacity="0" fill="#FF0000" x="0" y="0" width="24" height="24"></rect>
                    <path d="M20,9 L10,9 L10,21 L20,21 L20,9 Z M21,7 C21.5522847,7 22,7.44771525 22,8 L22,22 C22,22.5522847 21.5522847,23 21,23 L9,23 C8.44771525,23 8,22.5522847 8,22 L8,8 C8,7.44771525 8.44771525,7 9,7 L21,7 Z M7,6 L7,20 L5,20 L5,5 C5,4.44771525 5.44771525,4 6,4 L18,4 L18,6 L7,6 Z M4,3 L4,17 L2,17 L2,2 C2,1.44771525 2.44771525,1 3,1 L15,1 L15,3 L4,3 Z" id="Combined-Shape" fill="#B8C5D3"></path>
                    <path d="M0.00499895812,0.005 L0,23.995 L23.995,24 L24,0.005 L0.00499895812,0.005 Z" id="Path" stroke-opacity="0.01" stroke="#000000" stroke-width="0.01"></path>
                </g>
                <line x1="12.5" y1="12.5" x2="17.5" y2="12.5" id="Line" stroke="#B8C5D3" stroke-linecap="square"></line>
                <line x1="12.5" y1="15" x2="17.5" y2="15" id="Line-Copy" stroke="#B8C5D3" stroke-linecap="square"></line>
                <line x1="12.5" y1="18" x2="17.5" y2="18" id="Line-Copy-2" stroke="#B8C5D3" stroke-linecap="square"></line>
            </g>
        </g>
    </g>
</svg>